<?xml version="1.0" encoding="UTF-8"?>
<!--Generator: Apple Native CoreSVG 326-->
<!DOCTYPE svg
PUBLIC "-//W3C//DTD SVG 1.1//EN"
       "http://www.w3.org/Graphics/SVG/1.1/DTD/svg11.dtd">
<svg version="1.1" xmlns="http://www.w3.org/2000/svg" xmlns:xlink="http://www.w3.org/1999/xlink" viewBox="0 0 34.1875 31.9531">
 <g>
  <rect height="31.9531" opacity="0" width="34.1875" x="0" y="0"/>
  <path d="M30.6094 0.03125C29.875 0.03125 29.3125 0.34375 28.5312 0.734375L2.01562 13.5625C0.5 14.3125 0 15.0156 0 15.9844C0 16.9688 0.5 17.6719 2.01562 18.4062L28.5312 31.25C29.3281 31.6406 29.8906 31.9531 30.625 31.9531C31.9688 31.9531 32.7969 30.9219 32.7969 29.3281L32.7969 2.65625C32.7969 1.04688 31.9531 0.03125 30.6094 0.03125ZM29.7656 3.28125C29.9219 3.28125 30.0156 3.39062 30.0156 3.59375L30.0312 28.375C30.0312 28.5938 29.9375 28.7031 29.7969 28.7031C29.6719 28.7031 29.5781 28.6406 29.4688 28.5938L3.90625 16.3125C3.78125 16.25 3.64062 16.1406 3.64062 15.9844C3.64062 15.8438 3.78125 15.7344 3.90625 15.6719L29.4531 3.39062C29.5625 3.32812 29.6562 3.28125 29.7656 3.28125Z" fill="white" fill-opacity="0.85"/>
 </g>
</svg>
