<?xml version="1.0" encoding="UTF-8"?>
<!--Generator: Apple Native CoreSVG 326-->
<!DOCTYPE svg
PUBLIC "-//W3C//DTD SVG 1.1//EN"
       "http://www.w3.org/Graphics/SVG/1.1/DTD/svg11.dtd">
<svg version="1.1" xmlns="http://www.w3.org/2000/svg" xmlns:xlink="http://www.w3.org/1999/xlink" viewBox="0 0 41.0781 40.7344">
 <g>
  <rect height="40.7344" opacity="0" width="41.0781" x="0" y="0"/>
  <path d="M20.3438 40.7031C31.5781 40.7031 40.7031 31.5938 40.7031 20.3594C40.7031 9.125 31.5781 0 20.3438 0C9.10938 0 0 9.125 0 20.3594C0 31.5938 9.10938 40.7031 20.3438 40.7031ZM20.3438 37.7969C10.7031 37.7969 2.90625 30 2.90625 20.3594C2.90625 10.7188 10.7031 2.92188 20.3438 2.92188C29.9844 2.92188 37.7812 10.7188 37.7812 20.3594C37.7812 30 29.9844 37.7969 20.3438 37.7969Z" fill="white" fill-opacity="0.85"/>
  <path d="M11.1094 20.3594C11.1094 21.1875 11.7031 21.7656 12.5781 21.7656L18.8906 21.7656L18.8906 28.0938C18.8906 28.9531 19.4844 29.5625 20.3125 29.5625C21.1719 29.5625 21.7656 28.9688 21.7656 28.0938L21.7656 21.7656L28.0938 21.7656C28.9531 21.7656 29.5625 21.1875 29.5625 20.3594C29.5625 19.4844 28.9688 18.8906 28.0938 18.8906L21.7656 18.8906L21.7656 12.5781C21.7656 11.7031 21.1719 11.0938 20.3125 11.0938C19.4844 11.0938 18.8906 11.7031 18.8906 12.5781L18.8906 18.8906L12.5781 18.8906C11.7031 18.8906 11.1094 19.4844 11.1094 20.3594Z" fill="white" fill-opacity="0.85"/>
 </g>
</svg>
