<?xml version="1.0" encoding="UTF-8"?>
<!--Generator: Apple Native CoreSVG 326-->
<!DOCTYPE svg
PUBLIC "-//W3C//DTD SVG 1.1//EN"
       "http://www.w3.org/Graphics/SVG/1.1/DTD/svg11.dtd">
<svg version="1.1" xmlns="http://www.w3.org/2000/svg" xmlns:xlink="http://www.w3.org/1999/xlink" viewBox="0 0 41.0781 40.7344">
 <g>
  <rect height="40.7344" opacity="0" width="41.0781" x="0" y="0"/>
  <path d="M20.3438 40.7031C31.5781 40.7031 40.7031 31.5938 40.7031 20.3594C40.7031 9.125 31.5781 0 20.3438 0C9.10938 0 0 9.125 0 20.3594C0 31.5938 9.10938 40.7031 20.3438 40.7031ZM20.3438 37.7969C10.7031 37.7969 2.90625 30 2.90625 20.3594C2.90625 10.7188 10.7031 2.92188 20.3438 2.92188C29.9844 2.92188 37.7812 10.7188 37.7812 20.3594C37.7812 30 29.9844 37.7969 20.3438 37.7969Z" fill="white" fill-opacity="0.85"/>
  <path d="M12.0781 21.8281L28.5938 21.8281C29.5469 21.8281 30.2188 21.2969 30.2188 20.4062C30.2188 19.4844 29.5938 18.9375 28.5938 18.9375L12.0781 18.9375C11.0938 18.9375 10.4531 19.4844 10.4531 20.4062C10.4531 21.2969 11.125 21.8281 12.0781 21.8281Z" fill="white" fill-opacity="0.85"/>
 </g>
</svg>
